<svg viewBox="0 0 800 500" xmlns="http://www.w3.org/2000/svg">
  <defs>
    <filter id="grain">
      <feTurbulence type="fractalNoise" baseFrequency="0.85" numOctaves="2" stitchTiles="stitch"/>
      <feColorMatrix values="0 0 0 0 0  0 0 0 0 0  0 0 0 0 0  0 0 0 0.03 0"/>
    </filter>
  </defs>
  <rect width="800" height="500" fill="#16130F"/>
  <g stroke="white" stroke-width="1" opacity="0.04">
    <line x1="80" y1="0" x2="80" y2="500"/><line x1="160" y1="0" x2="160" y2="500"/>
    <line x1="240" y1="0" x2="240" y2="500"/><line x1="320" y1="0" x2="320" y2="500"/>
    <line x1="400" y1="0" x2="400" y2="500"/><line x1="480" y1="0" x2="480" y2="500"/>
    <line x1="560" y1="0" x2="560" y2="500"/><line x1="640" y1="0" x2="640" y2="500"/>
    <line x1="720" y1="0" x2="720" y2="500"/>
    <line x1="0" y1="80" x2="800" y2="80"/><line x1="0" y1="160" x2="800" y2="160"/>
    <line x1="0" y1="240" x2="800" y2="240"/><line x1="0" y1="320" x2="800" y2="320"/>
    <line x1="0" y1="400" x2="800" y2="400"/><line x1="0" y1="480" x2="800" y2="480"/>
  </g>
  <!-- Central node -->
  <circle cx="400" cy="240" r="28" fill="none" stroke="#DC7A4F" stroke-width="2"/>
  <!-- 5 avatar circles connected to center, arranged in pentagon -->
  <!-- Positions (radius 130 from center): top=400,110; top-right=523,146; bottom-right=480,306; bottom-left=320,306; top-left=277,146 -->
  <g fill="none" stroke="#DC7A4F" stroke-width="1.5">
    <!-- Lines from center to each avatar -->
    <line x1="400" y1="212" x2="400" y2="140"/>
    <line x1="426" y1="252" x2="490" y2="176"/>
    <line x1="422" y1="266" x2="458" y2="293"/>
    <line x1="378" y1="266" x2="342" y2="293"/>
    <line x1="374" y1="252" x2="310" y2="176"/>
  </g>
  <!-- Avatar circles (small, with head+body hint) -->
  <g fill="none" stroke="#F2EDE3" stroke-width="1.5">
    <!-- Top avatar -->
    <circle cx="400" cy="118" r="18"/>
    <path d="M384,136 Q384,152 400,152 Q416,152 416,136"/>
    <!-- Top-right -->
    <circle cx="502" cy="162" r="18"/>
    <path d="M486,180 Q486,196 502,196 Q518,196 518,180"/>
    <!-- Bottom-right -->
    <circle cx="462" cy="308" r="18"/>
    <path d="M446,326 Q446,342 462,342 Q478,342 478,326"/>
    <!-- Bottom-left -->
    <circle cx="338" cy="308" r="18"/>
    <path d="M322,326 Q322,342 338,342 Q354,342 354,326"/>
    <!-- Top-left -->
    <circle cx="298" cy="162" r="18"/>
    <path d="M282,180 Q282,196 298,196 Q314,196 314,180"/>
  </g>
  <rect width="800" height="500" filter="url(#grain)" opacity="0.03"/>
  <text x="24" y="475" font-family="JetBrains Mono, ui-monospace, monospace" font-size="14" font-weight="700" fill="#DC7A4F">[17]</text>
</svg>
