<svg viewBox="0 0 800 500" xmlns="http://www.w3.org/2000/svg">
  <defs>
    <filter id="grain">
      <feTurbulence type="fractalNoise" baseFrequency="0.85" numOctaves="2" stitchTiles="stitch"/>
      <feColorMatrix values="0 0 0 0 0  0 0 0 0 0  0 0 0 0 0  0 0 0 0.03 0"/>
    </filter>
  </defs>
  <rect width="800" height="500" fill="#16130F"/>
  <g stroke="white" stroke-width="1" opacity="0.04">
    <line x1="80" y1="0" x2="80" y2="500"/><line x1="160" y1="0" x2="160" y2="500"/>
    <line x1="240" y1="0" x2="240" y2="500"/><line x1="320" y1="0" x2="320" y2="500"/>
    <line x1="400" y1="0" x2="400" y2="500"/><line x1="480" y1="0" x2="480" y2="500"/>
    <line x1="560" y1="0" x2="560" y2="500"/><line x1="640" y1="0" x2="640" y2="500"/>
    <line x1="720" y1="0" x2="720" y2="500"/>
    <line x1="0" y1="80" x2="800" y2="80"/><line x1="0" y1="160" x2="800" y2="160"/>
    <line x1="0" y1="240" x2="800" y2="240"/><line x1="0" y1="320" x2="800" y2="320"/>
    <line x1="0" y1="400" x2="800" y2="400"/><line x1="0" y1="480" x2="800" y2="480"/>
  </g>
  <!-- Chat speech bubble outline, centered -->
  <g fill="none" stroke="#DC7A4F" stroke-width="2">
    <path d="M290,140 Q270,140 270,160 L270,290 Q270,310 290,310 L375,310 L375,340 L410,310 L510,310 Q530,310 530,290 L530,160 Q530,140 510,140 Z"/>
  </g>
  <!-- Gear icon inside bubble (secondary) -->
  <g fill="none" stroke="#F2EDE3" stroke-width="1.5">
    <!-- Gear outer circle -->
    <circle cx="400" cy="230" r="35"/>
    <!-- Gear inner circle -->
    <circle cx="400" cy="230" r="15"/>
    <!-- Gear teeth (8 teeth) -->
    <line x1="400" y1="188" x2="400" y2="200"/>
    <line x1="400" y1="260" x2="400" y2="272"/>
    <line x1="358" y1="230" x2="370" y2="230"/>
    <line x1="430" y1="230" x2="442" y2="230"/>
    <line x1="370" y1="200" x2="378" y2="208"/>
    <line x1="422" y1="252" x2="430" y2="260"/>
    <line x1="430" y1="200" x2="422" y2="208"/>
    <line x1="378" y1="252" x2="370" y2="260"/>
  </g>
  <line x1="240" y1="355" x2="560" y2="355" stroke="#DC7A4F" stroke-width="1" opacity="0.6"/>
  <rect width="800" height="500" filter="url(#grain)" opacity="0.03"/>
  <text x="24" y="475" font-family="JetBrains Mono, ui-monospace, monospace" font-size="14" font-weight="700" fill="#DC7A4F">[11]</text>
</svg>
