<svg viewBox="0 0 800 500" xmlns="http://www.w3.org/2000/svg">
  <defs>
    <filter id="grain">
      <feTurbulence type="fractalNoise" baseFrequency="0.85" numOctaves="2" stitchTiles="stitch"/>
      <feColorMatrix values="0 0 0 0 0  0 0 0 0 0  0 0 0 0 0  0 0 0 0.05 0"/>
    </filter>
    <radialGradient id="warmLight" cx="50%" cy="40%" r="65%">
      <stop offset="0%" stop-color="#3A332C"/>
      <stop offset="100%" stop-color="#2A2724"/>
    </radialGradient>
    <linearGradient id="terracottaShade" x1="0%" y1="0%" x2="100%" y2="100%">
      <stop offset="0%" stop-color="#E58A5F"/>
      <stop offset="100%" stop-color="#C66A40"/>
    </linearGradient>
    <linearGradient id="boneShade" x1="0%" y1="0%" x2="100%" y2="100%">
      <stop offset="0%" stop-color="#F7F2E8"/>
      <stop offset="100%" stop-color="#E0DACE"/>
    </linearGradient>
  </defs>

  <!-- Background -->
  <rect width="800" height="500" fill="url(#warmLight)"/>

  <!-- Subtle grid -->
  <g stroke="white" stroke-width="1" opacity="0.025">
    <line x1="80" y1="0" x2="80" y2="500"/>
    <line x1="160" y1="0" x2="160" y2="500"/>
    <line x1="240" y1="0" x2="240" y2="500"/>
    <line x1="320" y1="0" x2="320" y2="500"/>
    <line x1="400" y1="0" x2="400" y2="500"/>
    <line x1="480" y1="0" x2="480" y2="500"/>
    <line x1="560" y1="0" x2="560" y2="500"/>
    <line x1="640" y1="0" x2="640" y2="500"/>
    <line x1="720" y1="0" x2="720" y2="500"/>
    <line x1="0" y1="80" x2="800" y2="80"/>
    <line x1="0" y1="160" x2="800" y2="160"/>
    <line x1="0" y1="240" x2="800" y2="240"/>
    <line x1="0" y1="320" x2="800" y2="320"/>
    <line x1="0" y1="400" x2="800" y2="400"/>
  </g>

  <!-- Cast shadows under both shapes -->
  <ellipse cx="320" cy="360" rx="130" ry="14" fill="#000" opacity="0.35"/>
  <ellipse cx="500" cy="360" rx="130" ry="14" fill="#000" opacity="0.35"/>

  <!-- Bone shape: a torus-like flat ring (left), representing Claude -->
  <g transform="translate(320 260)">
    <circle r="120" fill="url(#boneShade)"/>
    <circle r="55" fill="url(#warmLight)"/>
    <!-- soft highlight -->
    <ellipse cx="-35" cy="-55" rx="55" ry="20" fill="#ffffff" opacity="0.18"/>
  </g>

  <!-- Terracotta shape: interlocking ring (right), representing Codex -->
  <g transform="translate(500 260)">
    <circle r="120" fill="url(#terracottaShade)"/>
    <circle r="55" fill="url(#warmLight)"/>
    <!-- highlight -->
    <ellipse cx="-30" cy="-50" rx="55" ry="20" fill="#ffffff" opacity="0.14"/>
  </g>

  <!-- Interlock illusion: redraw left arc of terracotta over bone where they meet -->
  <g transform="translate(500 260)">
    <path d="M -120 0 A 120 120 0 0 1 -50 -109 L -50 -55 A 55 55 0 0 0 -55 0 Z"
          fill="url(#terracottaShade)" opacity="0.0"/>
  </g>
  <!-- Manual interlock: stripe of terracotta crossing over bone on the overlap -->
  <g>
    <path d="M 405 175
             A 120 120 0 0 1 440 155
             A 120 120 0 0 0 405 345
             A 120 120 0 0 1 405 175 Z"
          fill="url(#terracottaShade)"/>
  </g>

  <!-- Tiny connecting accent dot -->
  <circle cx="410" cy="260" r="6" fill="#F2EDE3" opacity="0.85"/>

  <!-- Grain overlay -->
  <rect width="800" height="500" filter="url(#grain)"/>

  <!-- Vignette -->
  <radialGradient id="vignette" cx="50%" cy="50%" r="75%">
    <stop offset="60%" stop-color="#000" stop-opacity="0"/>
    <stop offset="100%" stop-color="#000" stop-opacity="0.55"/>
  </radialGradient>
  <rect width="800" height="500" fill="url(#vignette)"/>
</svg>
