<svg viewBox="0 0 800 500" xmlns="http://www.w3.org/2000/svg">
  <defs>
    <filter id="grain">
      <feTurbulence type="fractalNoise" baseFrequency="0.85" numOctaves="2" stitchTiles="stitch"/>
      <feColorMatrix values="0 0 0 0 0  0 0 0 0 0  0 0 0 0 0  0 0 0 0.03 0"/>
    </filter>
  </defs>
  <rect width="800" height="500" fill="#16130F"/>
  <g stroke="white" stroke-width="1" opacity="0.04">
    <line x1="80" y1="0" x2="80" y2="500"/><line x1="160" y1="0" x2="160" y2="500"/>
    <line x1="240" y1="0" x2="240" y2="500"/><line x1="320" y1="0" x2="320" y2="500"/>
    <line x1="400" y1="0" x2="400" y2="500"/><line x1="480" y1="0" x2="480" y2="500"/>
    <line x1="560" y1="0" x2="560" y2="500"/><line x1="640" y1="0" x2="640" y2="500"/>
    <line x1="720" y1="0" x2="720" y2="500"/>
    <line x1="0" y1="80" x2="800" y2="80"/><line x1="0" y1="160" x2="800" y2="160"/>
    <line x1="0" y1="240" x2="800" y2="240"/><line x1="0" y1="320" x2="800" y2="320"/>
    <line x1="0" y1="400" x2="800" y2="400"/><line x1="0" y1="480" x2="800" y2="480"/>
  </g>
  <!-- Three stacked boxes -->
  <g fill="none" stroke="#DC7A4F" stroke-width="2">
    <!-- Bottom box -->
    <rect x="290" y="290" width="180" height="55" rx="4"/>
    <!-- Middle box (slightly offset) -->
    <rect x="300" y="225" width="180" height="55" rx="4"/>
    <!-- Top box -->
    <rect x="310" y="160" width="180" height="55" rx="4"/>
  </g>
  <!-- Secondary detail lines inside boxes -->
  <g stroke="#F2EDE3" stroke-width="1" opacity="0.5">
    <line x1="305" y1="275" x2="455" y2="275"/>
    <line x1="315" y1="210" x2="465" y2="210"/>
    <line x1="325" y1="145" x2="475" y2="145"/>
  </g>
  <!-- Curved arrow on right side (pipeline direction) -->
  <g fill="none" stroke="#DC7A4F" stroke-width="2">
    <path d="M490,182 Q530,182 530,247 Q530,318 490,318"/>
    <!-- Arrowhead at bottom -->
    <polyline points="475,306 490,318 478,332"/>
  </g>
  <line x1="220" y1="360" x2="560" y2="360" stroke="#DC7A4F" stroke-width="1" opacity="0.6"/>
  <rect width="800" height="500" filter="url(#grain)" opacity="0.03"/>
  <text x="24" y="475" font-family="JetBrains Mono, ui-monospace, monospace" font-size="14" font-weight="700" fill="#DC7A4F">[14]</text>
</svg>
