<svg viewBox="0 0 800 500" xmlns="http://www.w3.org/2000/svg">
  <defs>
    <filter id="grain">
      <feTurbulence type="fractalNoise" baseFrequency="0.85" numOctaves="2" stitchTiles="stitch"/>
      <feColorMatrix values="0 0 0 0 0  0 0 0 0 0  0 0 0 0 0  0 0 0 0.03 0"/>
    </filter>
  </defs>
  <rect width="800" height="500" fill="#16130F"/>
  <g stroke="white" stroke-width="1" opacity="0.04">
    <line x1="80" y1="0" x2="80" y2="500"/><line x1="160" y1="0" x2="160" y2="500"/>
    <line x1="240" y1="0" x2="240" y2="500"/><line x1="320" y1="0" x2="320" y2="500"/>
    <line x1="400" y1="0" x2="400" y2="500"/><line x1="480" y1="0" x2="480" y2="500"/>
    <line x1="560" y1="0" x2="560" y2="500"/><line x1="640" y1="0" x2="640" y2="500"/>
    <line x1="720" y1="0" x2="720" y2="500"/>
    <line x1="0" y1="80" x2="800" y2="80"/><line x1="0" y1="160" x2="800" y2="160"/>
    <line x1="0" y1="240" x2="800" y2="240"/><line x1="0" y1="320" x2="800" y2="320"/>
    <line x1="0" y1="400" x2="800" y2="400"/><line x1="0" y1="480" x2="800" y2="480"/>
  </g>
  <!-- 4x3 grid of rectangular foundation blocks, centered around 400,240 -->
  <!-- Block size: 80w x 55h, gap: 12 -->
  <!-- Total width: 4*80 + 3*12 = 356, start x = 400-178 = 222 -->
  <!-- Total height: 3*55 + 2*12 = 189, start y = 240-94 = 146 -->
  <g fill="none" stroke="#DC7A4F" stroke-width="2">
    <!-- Row 1 -->
    <rect x="222" y="146" width="80" height="55" rx="2"/>
    <rect x="314" y="146" width="80" height="55" rx="2"/>
    <rect x="406" y="146" width="80" height="55" rx="2"/>
    <rect x="498" y="146" width="80" height="55" rx="2"/>
    <!-- Row 2 -->
    <rect x="222" y="213" width="80" height="55" rx="2"/>
    <rect x="314" y="213" width="80" height="55" rx="2"/>
    <rect x="406" y="213" width="80" height="55" rx="2"/>
    <rect x="498" y="213" width="80" height="55" rx="2"/>
    <!-- Row 3 -->
    <rect x="222" y="280" width="80" height="55" rx="2"/>
    <rect x="314" y="280" width="80" height="55" rx="2"/>
    <rect x="406" y="280" width="80" height="55" rx="2"/>
    <rect x="498" y="280" width="80" height="55" rx="2"/>
  </g>
  <!-- Subtle inner detail lines on a few blocks (secondary) -->
  <g stroke="#F2EDE3" stroke-width="1" opacity="0.4">
    <line x1="232" y1="163" x2="292" y2="163"/>
    <line x1="324" y1="163" x2="384" y2="163"/>
    <line x1="416" y1="163" x2="476" y2="163"/>
    <line x1="508" y1="163" x2="568" y2="163"/>
  </g>
  <line x1="200" y1="352" x2="600" y2="352" stroke="#DC7A4F" stroke-width="1" opacity="0.6"/>
  <rect width="800" height="500" filter="url(#grain)" opacity="0.03"/>
  <text x="24" y="475" font-family="JetBrains Mono, ui-monospace, monospace" font-size="14" font-weight="700" fill="#DC7A4F">[09]</text>
</svg>
