<svg viewBox="0 0 800 500" xmlns="http://www.w3.org/2000/svg">
  <defs>
    <filter id="grain">
      <feTurbulence type="fractalNoise" baseFrequency="0.85" numOctaves="2" stitchTiles="stitch"/>
      <feColorMatrix values="0 0 0 0 0  0 0 0 0 0  0 0 0 0 0  0 0 0 0.03 0"/>
    </filter>
  </defs>
  <rect width="800" height="500" fill="#16130F"/>
  <g stroke="white" stroke-width="1" opacity="0.04">
    <line x1="80" y1="0" x2="80" y2="500"/><line x1="160" y1="0" x2="160" y2="500"/>
    <line x1="240" y1="0" x2="240" y2="500"/><line x1="320" y1="0" x2="320" y2="500"/>
    <line x1="400" y1="0" x2="400" y2="500"/><line x1="480" y1="0" x2="480" y2="500"/>
    <line x1="560" y1="0" x2="560" y2="500"/><line x1="640" y1="0" x2="640" y2="500"/>
    <line x1="720" y1="0" x2="720" y2="500"/>
    <line x1="0" y1="80" x2="800" y2="80"/><line x1="0" y1="160" x2="800" y2="160"/>
    <line x1="0" y1="240" x2="800" y2="240"/><line x1="0" y1="320" x2="800" y2="320"/>
    <line x1="0" y1="400" x2="800" y2="400"/><line x1="0" y1="480" x2="800" y2="480"/>
  </g>
  <!-- Lightbulb outline -->
  <g fill="none" stroke="#DC7A4F" stroke-width="2">
    <!-- Bulb circle top -->
    <path d="M400,110 m-60,0 a60,60 0 1,1 120,0 Q460,200 440,220 L360,220 Q340,200 340,170 Z"/>
    <!-- Base bands -->
    <line x1="358" y1="230" x2="442" y2="230"/>
    <line x1="362" y1="242" x2="438" y2="242"/>
    <!-- Filament pin -->
    <line x1="400" y1="252" x2="400" y2="262"/>
  </g>
  <!-- Three nested rectangles morphing inside the bulb (doc detail) -->
  <g fill="none" stroke="#F2EDE3" stroke-width="1.5">
    <rect x="370" y="145" width="60" height="48" rx="2"/>
    <rect x="378" y="153" width="44" height="32" rx="1"/>
    <rect x="386" y="161" width="28" height="16" rx="1"/>
  </g>
  <line x1="220" y1="275" x2="580" y2="275" stroke="#DC7A4F" stroke-width="1" opacity="0.6"/>
  <rect width="800" height="500" filter="url(#grain)" opacity="0.03"/>
  <text x="24" y="475" font-family="JetBrains Mono, ui-monospace, monospace" font-size="14" font-weight="700" fill="#DC7A4F">[04]</text>
</svg>
