<svg viewBox="0 0 800 500" xmlns="http://www.w3.org/2000/svg">
  <defs>
    <filter id="grain">
      <feTurbulence type="fractalNoise" baseFrequency="0.85" numOctaves="2" stitchTiles="stitch"/>
      <feColorMatrix values="0 0 0 0 0  0 0 0 0 0  0 0 0 0 0  0 0 0 0.03 0"/>
    </filter>
  </defs>
  <rect width="800" height="500" fill="#16130F"/>
  <g stroke="white" stroke-width="1" opacity="0.04">
    <line x1="80" y1="0" x2="80" y2="500"/><line x1="160" y1="0" x2="160" y2="500"/>
    <line x1="240" y1="0" x2="240" y2="500"/><line x1="320" y1="0" x2="320" y2="500"/>
    <line x1="400" y1="0" x2="400" y2="500"/><line x1="480" y1="0" x2="480" y2="500"/>
    <line x1="560" y1="0" x2="560" y2="500"/><line x1="640" y1="0" x2="640" y2="500"/>
    <line x1="720" y1="0" x2="720" y2="500"/>
    <line x1="0" y1="80" x2="800" y2="80"/><line x1="0" y1="160" x2="800" y2="160"/>
    <line x1="0" y1="240" x2="800" y2="240"/><line x1="0" y1="320" x2="800" y2="320"/>
    <line x1="0" y1="400" x2="800" y2="400"/><line x1="0" y1="480" x2="800" y2="480"/>
  </g>
  <!-- Three nodes in equilateral triangle -->
  <!-- Top: 400,120  Bottom-left: 280,320  Bottom-right: 520,320 -->
  <g fill="none" stroke="#DC7A4F" stroke-width="2">
    <line x1="400" y1="145" x2="296" y2="307"/>
    <line x1="400" y1="145" x2="504" y2="307"/>
    <line x1="296" y1="332" x2="504" y2="332"/>
    <!-- Node circles -->
    <circle cx="400" cy="130" r="25"/>
    <circle cx="280" cy="330" r="25"/>
    <circle cx="520" cy="330" r="25"/>
  </g>
  <!-- Small brain icon at center (secondary) -->
  <g fill="none" stroke="#F2EDE3" stroke-width="1.5">
    <!-- Simple brain shape at center ~400,248 -->
    <path d="M388,242 Q378,228 388,218 Q398,208 408,218 Q418,208 428,218 Q438,228 428,242 Q418,256 408,256 Q398,256 388,242Z"/>
    <!-- Brain split line -->
    <line x1="408" y1="218" x2="408" y2="256"/>
  </g>
  <line x1="220" y1="370" x2="580" y2="370" stroke="#DC7A4F" stroke-width="1" opacity="0.6"/>
  <rect width="800" height="500" filter="url(#grain)" opacity="0.03"/>
  <text x="24" y="475" font-family="JetBrains Mono, ui-monospace, monospace" font-size="14" font-weight="700" fill="#DC7A4F">[02]</text>
</svg>
