<svg viewBox="0 0 800 500" xmlns="http://www.w3.org/2000/svg">
  <defs>
    <filter id="grain">
      <feTurbulence type="fractalNoise" baseFrequency="0.85" numOctaves="2" stitchTiles="stitch"/>
      <feColorMatrix values="0 0 0 0 0  0 0 0 0 0  0 0 0 0 0  0 0 0 0.03 0"/>
    </filter>
  </defs>
  <rect width="800" height="500" fill="#16130F"/>
  <g stroke="white" stroke-width="1" opacity="0.04">
    <line x1="80" y1="0" x2="80" y2="500"/><line x1="160" y1="0" x2="160" y2="500"/>
    <line x1="240" y1="0" x2="240" y2="500"/><line x1="320" y1="0" x2="320" y2="500"/>
    <line x1="400" y1="0" x2="400" y2="500"/><line x1="480" y1="0" x2="480" y2="500"/>
    <line x1="560" y1="0" x2="560" y2="500"/><line x1="640" y1="0" x2="640" y2="500"/>
    <line x1="720" y1="0" x2="720" y2="500"/>
    <line x1="0" y1="80" x2="800" y2="80"/><line x1="0" y1="160" x2="800" y2="160"/>
    <line x1="0" y1="240" x2="800" y2="240"/><line x1="0" y1="320" x2="800" y2="320"/>
    <line x1="0" y1="400" x2="800" y2="400"/><line x1="0" y1="480" x2="800" y2="480"/>
  </g>
  <!-- Stack of 3 folders, bottom to top -->
  <!-- Bottom folder (closed) -->
  <g fill="none" stroke="#DC7A4F" stroke-width="2">
    <path d="M290,330 L290,260 L350,260 L360,250 L510,250 L510,330 Z"/>
  </g>
  <!-- Middle folder (closed) -->
  <g fill="none" stroke="#DC7A4F" stroke-width="2">
    <path d="M300,300 L300,230 L360,230 L370,220 L520,220 L520,300 Z"/>
  </g>
  <!-- Top folder (open) -->
  <g fill="none" stroke="#DC7A4F" stroke-width="2">
    <!-- Tab -->
    <path d="M310,275 L370,275 L380,265 L530,265 L530,200 L310,200 Z"/>
    <!-- Open flap -->
    <path d="M310,200 L310,185 L380,185 L390,175 L530,175 L530,200"/>
  </g>
  <!-- Three text lines inside open folder (secondary) -->
  <g stroke="#F2EDE3" stroke-width="1.5" opacity="0.8">
    <line x1="325" y1="210" x2="480" y2="210"/>
    <line x1="325" y1="222" x2="460" y2="222"/>
    <line x1="325" y1="234" x2="440" y2="234"/>
  </g>
  <line x1="220" y1="355" x2="580" y2="355" stroke="#DC7A4F" stroke-width="1" opacity="0.6"/>
  <rect width="800" height="500" filter="url(#grain)" opacity="0.03"/>
  <text x="24" y="475" font-family="JetBrains Mono, ui-monospace, monospace" font-size="14" font-weight="700" fill="#DC7A4F">[05]</text>
</svg>
