<svg viewBox="0 0 800 500" xmlns="http://www.w3.org/2000/svg" font-family="ui-monospace, Menlo, monospace">
  <defs>
    <filter id="g"><feTurbulence type="fractalNoise" baseFrequency="0.85" numOctaves="2" stitchTiles="stitch"/>
      <feColorMatrix values="0 0 0 0 0 0 0 0 0 0 0 0 0 0 0 0 0 0 0.03 0"/></filter>
  </defs>
  <rect width="800" height="500" fill="#16130F"/>
  <g stroke="#ffffff" stroke-width="1" opacity="0.04">
    <line x1="80" y1="0" x2="80" y2="500"/><line x1="160" y1="0" x2="160" y2="500"/>
    <line x1="240" y1="0" x2="240" y2="500"/><line x1="320" y1="0" x2="320" y2="500"/>
    <line x1="400" y1="0" x2="400" y2="500"/><line x1="480" y1="0" x2="480" y2="500"/>
    <line x1="560" y1="0" x2="560" y2="500"/><line x1="640" y1="0" x2="640" y2="500"/>
    <line x1="720" y1="0" x2="720" y2="500"/>
    <line x1="0" y1="80" x2="800" y2="80"/><line x1="0" y1="160" x2="800" y2="160"/>
    <line x1="0" y1="240" x2="800" y2="240"/><line x1="0" y1="320" x2="800" y2="320"/>
    <line x1="0" y1="400" x2="800" y2="400"/>
  </g>

  <text x="56" y="70" font-size="14" letter-spacing="3" fill="#7a6b52">КНИГА-ИГРА · EDUTAINMENT</text>

  <g fill="none" stroke="#C9924B" stroke-width="2" stroke-linecap="round" stroke-linejoin="round">
    <!-- open book -->
    <path d="M400,330 L272,300 L272,372 L400,392 Z"/>
    <path d="M400,330 L528,300 L528,372 L400,392 Z"/>
    <line x1="400" y1="330" x2="400" y2="392"/>
    <g opacity="0.7">
      <line x1="296" y1="322" x2="376" y2="337"/><line x1="296" y1="338" x2="376" y2="352"/><line x1="296" y1="354" x2="356" y2="365"/>
      <line x1="424" y1="337" x2="504" y2="322"/><line x1="424" y1="352" x2="504" y2="338"/><line x1="444" y1="365" x2="504" y2="354"/>
    </g>

    <!-- choice tree rising from the book -->
    <path d="M400,300 L400,250"/>
    <circle cx="400" cy="238" r="12"/>
    <path d="M392,229 L344,196"/><circle cx="336" cy="188" r="10"/>
    <path d="M408,229 L456,196"/><circle cx="464" cy="188" r="10"/>
    <path d="M330,180 L300,150"/><circle cx="293" cy="143" r="8"/>
    <path d="M342,180 L372,150"/><circle cx="379" cy="143" r="8"/>
    <path d="M470,180 L500,150"/><circle cx="507" cy="143" r="8"/>

    <!-- d6 die -->
    <rect x="150" y="150" width="66" height="66" rx="10"/>
    <circle cx="168" cy="168" r="4" fill="#C9924B"/>
    <circle cx="198" cy="168" r="4" fill="#C9924B"/>
    <circle cx="183" cy="183" r="4" fill="#C9924B"/>
    <circle cx="168" cy="198" r="4" fill="#C9924B"/>
    <circle cx="198" cy="198" r="4" fill="#C9924B"/>

    <!-- feather accent -->
    <path d="M600,150 C616,180 616,210 604,238" />
    <path d="M604,168 L588,178 M607,186 L590,196 M608,204 L592,214 M606,222 L594,230" opacity="0.6"/>
  </g>

  <rect width="800" height="500" filter="url(#g)" opacity="0.5"/>
</svg>
