<svg viewBox="0 0 800 500" xmlns="http://www.w3.org/2000/svg">
  <defs>
    <filter id="grain">
      <feTurbulence type="fractalNoise" baseFrequency="0.85" numOctaves="2" stitchTiles="stitch"/>
      <feColorMatrix values="0 0 0 0 0  0 0 0 0 0  0 0 0 0 0  0 0 0 0.03 0"/>
    </filter>
  </defs>
  <rect width="800" height="500" fill="#16130F"/>
  <g stroke="white" stroke-width="1" opacity="0.04">
    <line x1="80" y1="0" x2="80" y2="500"/><line x1="160" y1="0" x2="160" y2="500"/>
    <line x1="240" y1="0" x2="240" y2="500"/><line x1="320" y1="0" x2="320" y2="500"/>
    <line x1="400" y1="0" x2="400" y2="500"/><line x1="480" y1="0" x2="480" y2="500"/>
    <line x1="560" y1="0" x2="560" y2="500"/><line x1="640" y1="0" x2="640" y2="500"/>
    <line x1="720" y1="0" x2="720" y2="500"/>
    <line x1="0" y1="80" x2="800" y2="80"/><line x1="0" y1="160" x2="800" y2="160"/>
    <line x1="0" y1="240" x2="800" y2="240"/><line x1="0" y1="320" x2="800" y2="320"/>
    <line x1="0" y1="400" x2="800" y2="400"/><line x1="0" y1="480" x2="800" y2="480"/>
  </g>
  <!-- Brain outline built from CLI prompt characters >_ repeating -->
  <!-- Brain silhouette path, filled with outline only -->
  <path d="M330,150 Q290,130 270,165 Q250,200 270,230 Q255,260 275,285
           Q270,320 300,335 Q330,350 360,335 Q385,345 400,345
           Q415,345 440,335 Q470,350 500,335 Q530,320 525,285
           Q545,260 530,230 Q550,200 530,165 Q510,130 470,150
           Q455,120 420,115 Q400,110 380,115 Q345,120 330,150Z"
    fill="none" stroke="#DC7A4F" stroke-width="2"/>
  <!-- Brain dividing line -->
  <line x1="400" y1="115" x2="400" y2="345" stroke="#DC7A4F" stroke-width="1.5" stroke-dasharray="4,4"/>
  <!-- CLI prompt chars scattered inside brain area -->
  <g font-family="JetBrains Mono, ui-monospace, monospace" font-size="13" fill="#F2EDE3" opacity="0.5">
    <text x="295" y="185">&gt;_</text>
    <text x="340" y="170">&gt;_</text>
    <text x="390" y="195">&gt;_</text>
    <text x="438" y="172">&gt;_</text>
    <text x="468" y="200">&gt;_</text>
    <text x="305" y="225">&gt;_</text>
    <text x="358" y="240">&gt;_</text>
    <text x="412" y="232">&gt;_</text>
    <text x="455" y="245">&gt;_</text>
    <text x="295" y="268">&gt;_</text>
    <text x="345" y="285">&gt;_</text>
    <text x="408" y="278">&gt;_</text>
    <text x="455" y="282">&gt;_</text>
    <text x="490" y="265">&gt;_</text>
    <text x="322" y="318">&gt;_</text>
    <text x="375" y="328">&gt;_</text>
    <text x="425" y="325">&gt;_</text>
    <text x="468" y="315">&gt;_</text>
  </g>
  <line x1="220" y1="360" x2="580" y2="360" stroke="#DC7A4F" stroke-width="1" opacity="0.6"/>
  <rect width="800" height="500" filter="url(#grain)" opacity="0.03"/>
  <text x="24" y="475" font-family="JetBrains Mono, ui-monospace, monospace" font-size="14" font-weight="700" fill="#DC7A4F">[07]</text>
</svg>
