<svg viewBox="0 0 800 500" xmlns="http://www.w3.org/2000/svg">
  <defs>
    <filter id="grain">
      <feTurbulence type="fractalNoise" baseFrequency="0.85" numOctaves="2" stitchTiles="stitch"/>
      <feColorMatrix values="0 0 0 0 0  0 0 0 0 0  0 0 0 0 0  0 0 0 0.03 0"/>
    </filter>
  </defs>
  <!-- Background -->
  <rect width="800" height="500" fill="#16130F"/>
  <!-- Grid 80x80 at 4% opacity -->
  <g stroke="white" stroke-width="1" opacity="0.04">
    <line x1="80" y1="0" x2="80" y2="500"/>
    <line x1="160" y1="0" x2="160" y2="500"/>
    <line x1="240" y1="0" x2="240" y2="500"/>
    <line x1="320" y1="0" x2="320" y2="500"/>
    <line x1="400" y1="0" x2="400" y2="500"/>
    <line x1="480" y1="0" x2="480" y2="500"/>
    <line x1="560" y1="0" x2="560" y2="500"/>
    <line x1="640" y1="0" x2="640" y2="500"/>
    <line x1="720" y1="0" x2="720" y2="500"/>
    <line x1="0" y1="80" x2="800" y2="80"/>
    <line x1="0" y1="160" x2="800" y2="160"/>
    <line x1="0" y1="240" x2="800" y2="240"/>
    <line x1="0" y1="320" x2="800" y2="320"/>
    <line x1="0" y1="400" x2="800" y2="400"/>
    <line x1="0" y1="480" x2="800" y2="480"/>
  </g>
  <!-- Envelope outline -->
  <g fill="none" stroke="#DC7A4F" stroke-width="2">
    <!-- Envelope body -->
    <rect x="260" y="140" width="280" height="200" rx="4"/>
    <!-- Envelope flap left side (V shape) -->
    <polyline points="260,140 400,230 540,140"/>
    <!-- Envelope bottom triangle lines -->
    <line x1="260" y1="340" x2="360" y2="255"/>
    <line x1="540" y1="340" x2="440" y2="255"/>
  </g>
  <!-- Bot face on flap (secondary detail in muted white) -->
  <g fill="none" stroke="#F2EDE3" stroke-width="1.5">
    <!-- Two dot eyes -->
    <circle cx="383" cy="190" r="5"/>
    <circle cx="417" cy="190" r="5"/>
    <!-- Smile curve -->
    <path d="M 375 210 Q 400 228 425 210"/>
  </g>
  <!-- Horizon line -->
  <line x1="220" y1="360" x2="580" y2="360" stroke="#DC7A4F" stroke-width="1" opacity="0.6"/>
  <!-- Grain overlay -->
  <rect width="800" height="500" filter="url(#grain)" opacity="0.03"/>
  <!-- Index label -->
  <text x="24" y="475" font-family="JetBrains Mono, ui-monospace, monospace" font-size="14" font-weight="700" fill="#DC7A4F">[01]</text>
</svg>
