<svg viewBox="0 0 800 500" xmlns="http://www.w3.org/2000/svg">
  <defs>
    <filter id="grain-nblm">
      <feTurbulence type="fractalNoise" baseFrequency="0.85" numOctaves="2" stitchTiles="stitch"/>
      <feColorMatrix values="0 0 0 0 0  0 0 0 0 0  0 0 0 0 0  0 0 0 0.03 0"/>
    </filter>
  </defs>

  <!-- Dark background -->
  <rect width="800" height="500" fill="#0a0a0b"/>

  <!-- Grid -->
  <g stroke="#d4ff3c" stroke-width="1" opacity="0.04">
    <line x1="80" y1="0" x2="80" y2="500"/>
    <line x1="160" y1="0" x2="160" y2="500"/>
    <line x1="240" y1="0" x2="240" y2="500"/>
    <line x1="320" y1="0" x2="320" y2="500"/>
    <line x1="400" y1="0" x2="400" y2="500"/>
    <line x1="480" y1="0" x2="480" y2="500"/>
    <line x1="560" y1="0" x2="560" y2="500"/>
    <line x1="640" y1="0" x2="640" y2="500"/>
    <line x1="720" y1="0" x2="720" y2="500"/>
    <line x1="0" y1="80" x2="800" y2="80"/>
    <line x1="0" y1="160" x2="800" y2="160"/>
    <line x1="0" y1="240" x2="800" y2="240"/>
    <line x1="0" y1="320" x2="800" y2="320"/>
    <line x1="0" y1="400" x2="800" y2="400"/>
    <line x1="0" y1="480" x2="800" y2="480"/>
  </g>

  <!-- Soft glow background -->
  <ellipse cx="400" cy="250" rx="280" ry="180" fill="#d4ff3c" opacity="0.04"/>

  <!-- LEFT: NotebookLM (book stack) -->
  <g transform="translate(220, 250)">
    <!-- Book 1 -->
    <rect x="-50" y="-40" width="100" height="14" rx="2" fill="#d4ff3c" opacity="0.7"/>
    <!-- Book 2 -->
    <rect x="-55" y="-22" width="110" height="14" rx="2" fill="#d4ff3c" opacity="0.5"/>
    <!-- Book 3 -->
    <rect x="-48" y="-4" width="96" height="14" rx="2" fill="#d4ff3c" opacity="0.85"/>
    <!-- Book 4 -->
    <rect x="-58" y="14" width="116" height="14" rx="2" fill="#d4ff3c" opacity="0.4"/>
    <!-- Book 5 -->
    <rect x="-45" y="32" width="90" height="14" rx="2" fill="#d4ff3c" opacity="0.6"/>
  </g>
  <text x="220" y="370" text-anchor="middle" fill="#9b9ba3" font-family="Inter, sans-serif" font-size="14" font-weight="500">NotebookLM</text>
  <text x="220" y="390" text-anchor="middle" fill="#5a5a63" font-family="Inter, sans-serif" font-size="11">research library</text>

  <!-- ARROWS / CONNECTION -->
  <g stroke="#d4ff3c" stroke-width="2" fill="none" opacity="0.85">
    <line x1="290" y1="248" x2="510" y2="248" stroke-dasharray="6,6"/>
    <polygon points="510,248 500,243 500,253" fill="#d4ff3c"/>
    <line x1="510" y1="262" x2="290" y2="262" stroke-dasharray="6,6"/>
    <polygon points="290,262 300,257 300,267" fill="#d4ff3c"/>
  </g>

  <!-- RIGHT: Claude Code (terminal) -->
  <g transform="translate(580, 250)">
    <rect x="-70" y="-50" width="140" height="100" rx="6" fill="#111114" stroke="#d4ff3c" stroke-width="2"/>
    <!-- Terminal dots -->
    <circle cx="-58" cy="-38" r="3" fill="#5a5a63"/>
    <circle cx="-48" cy="-38" r="3" fill="#5a5a63"/>
    <circle cx="-38" cy="-38" r="3" fill="#5a5a63"/>
    <!-- Code lines -->
    <rect x="-58" y="-22" width="80" height="3" fill="#d4ff3c" opacity="0.8"/>
    <rect x="-58" y="-12" width="60" height="3" fill="#9b9ba3" opacity="0.5"/>
    <rect x="-58" y="-2" width="100" height="3" fill="#9b9ba3" opacity="0.5"/>
    <rect x="-58" y="8" width="40" height="3" fill="#d4ff3c" opacity="0.8"/>
    <rect x="-58" y="18" width="90" height="3" fill="#9b9ba3" opacity="0.5"/>
    <!-- cursor -->
    <rect x="-58" y="32" width="8" height="3" fill="#d4ff3c"/>
  </g>
  <text x="580" y="370" text-anchor="middle" fill="#9b9ba3" font-family="Inter, sans-serif" font-size="14" font-weight="500">Claude Code</text>
  <text x="580" y="390" text-anchor="middle" fill="#5a5a63" font-family="Inter, sans-serif" font-size="11">your AI agent</text>

  <!-- Title at top -->
  <text x="400" y="80" text-anchor="middle" fill="#ededed" font-family="Inter, sans-serif" font-size="32" font-weight="700" letter-spacing="-1">Free research memory</text>
  <text x="400" y="110" text-anchor="middle" fill="#d4ff3c" font-family="JetBrains Mono, monospace" font-size="14" font-weight="500">$0 · 1M tokens · no Pinecone</text>

  <!-- Bottom dot pulse -->
  <g>
    <circle cx="400" cy="450" r="4" fill="#d4ff3c"/>
    <text x="400" y="475" text-anchor="middle" fill="#5a5a63" font-family="Inter, sans-serif" font-size="11">notebooklm × claude</text>
  </g>

  <!-- Grain overlay -->
  <rect width="800" height="500" filter="url(#grain-nblm)" opacity="0.6"/>
</svg>
