<svg viewBox="0 0 800 500" xmlns="http://www.w3.org/2000/svg">
  <defs>
    <filter id="grain">
      <feTurbulence type="fractalNoise" baseFrequency="0.85" numOctaves="2" stitchTiles="stitch"/>
      <feColorMatrix values="0 0 0 0 0  0 0 0 0 0  0 0 0 0 0  0 0 0 0.03 0"/>
    </filter>
  </defs>
  <rect width="800" height="500" fill="#16130F"/>
  <g stroke="white" stroke-width="1" opacity="0.04">
    <line x1="80" y1="0" x2="80" y2="500"/><line x1="160" y1="0" x2="160" y2="500"/>
    <line x1="240" y1="0" x2="240" y2="500"/><line x1="320" y1="0" x2="320" y2="500"/>
    <line x1="400" y1="0" x2="400" y2="500"/><line x1="480" y1="0" x2="480" y2="500"/>
    <line x1="560" y1="0" x2="560" y2="500"/><line x1="640" y1="0" x2="640" y2="500"/>
    <line x1="720" y1="0" x2="720" y2="500"/>
    <line x1="0" y1="80" x2="800" y2="80"/><line x1="0" y1="160" x2="800" y2="160"/>
    <line x1="0" y1="240" x2="800" y2="240"/><line x1="0" y1="320" x2="800" y2="320"/>
    <line x1="0" y1="400" x2="800" y2="400"/><line x1="0" y1="480" x2="800" y2="480"/>
  </g>
  <!-- Spray nozzle outline, centered -->
  <g fill="none" stroke="#DC7A4F" stroke-width="2">
    <!-- Can body -->
    <rect x="340" y="180" width="80" height="130" rx="10"/>
    <!-- Nozzle tip top -->
    <rect x="355" y="162" width="50" height="22" rx="5"/>
    <!-- Nozzle spout -->
    <rect x="370" y="148" width="20" height="18" rx="3"/>
    <!-- Trigger -->
    <path d="M340,220 Q320,230 322,250 L340,250"/>
    <!-- Base detail line -->
    <line x1="340" y1="290" x2="420" y2="290"/>
  </g>
  <!-- Three short dotted emission lines -->
  <g stroke="#F2EDE3" stroke-width="1.5" stroke-dasharray="4,5">
    <line x1="390" y1="135" x2="390" y2="95"/>
    <line x1="420" y1="148" x2="450" y2="115"/>
    <line x1="365" y1="148" x2="335" y2="115"/>
  </g>
  <line x1="220" y1="330" x2="580" y2="330" stroke="#DC7A4F" stroke-width="1" opacity="0.6"/>
  <rect width="800" height="500" filter="url(#grain)" opacity="0.03"/>
  <text x="24" y="475" font-family="JetBrains Mono, ui-monospace, monospace" font-size="14" font-weight="700" fill="#DC7A4F">[13]</text>
</svg>
