<svg viewBox="0 0 800 500" xmlns="http://www.w3.org/2000/svg">
  <defs>
    <filter id="grain">
      <feTurbulence type="fractalNoise" baseFrequency="0.85" numOctaves="2" stitchTiles="stitch"/>
      <feColorMatrix values="0 0 0 0 0  0 0 0 0 0  0 0 0 0 0  0 0 0 0.05 0"/>
    </filter>
    <radialGradient id="px_warm" cx="50%" cy="42%" r="70%">
      <stop offset="0%" stop-color="#332B23"/>
      <stop offset="100%" stop-color="#232019"/>
    </radialGradient>
    <linearGradient id="px_terra" x1="0%" y1="0%" x2="100%" y2="100%">
      <stop offset="0%" stop-color="#E58A5F"/>
      <stop offset="100%" stop-color="#C66A40"/>
    </linearGradient>
    <linearGradient id="px_bone" x1="0%" y1="0%" x2="100%" y2="100%">
      <stop offset="0%" stop-color="#F7F2E8"/>
      <stop offset="100%" stop-color="#E0DACE"/>
    </linearGradient>
  </defs>

  <rect width="800" height="500" fill="url(#px_warm)"/>

  <!-- faint grid -->
  <g stroke="white" stroke-width="1" opacity="0.02">
    <line x1="160" y1="0" x2="160" y2="500"/><line x1="320" y1="0" x2="320" y2="500"/>
    <line x1="480" y1="0" x2="480" y2="500"/><line x1="640" y1="0" x2="640" y2="500"/>
    <line x1="0" y1="125" x2="800" y2="125"/><line x1="0" y1="250" x2="800" y2="250"/>
    <line x1="0" y1="375" x2="800" y2="375"/>
  </g>

  <!-- redacted lines: the project, blacked out -->
  <g opacity="0.9">
    <rect x="90" y="150" width="360" height="26" rx="4" fill="#000" opacity="0.45"/>
    <rect x="90" y="196" width="270" height="26" rx="4" fill="#000" opacity="0.45"/>
    <rect x="90" y="242" width="330" height="26" rx="4" fill="#000" opacity="0.45"/>
  </g>

  <!-- the big X, terracotta -->
  <g stroke="url(#px_terra)" stroke-width="34" stroke-linecap="round" opacity="0.95">
    <line x1="560" y1="150" x2="700" y2="300"/>
    <line x1="700" y1="150" x2="560" y2="300"/>
  </g>

  <!-- wordmark -->
  <text x="90" y="365" font-family="Georgia, 'Times New Roman', serif" font-size="58" font-weight="700" fill="url(#px_bone)">Проект Икс</text>
  <text x="92" y="402" font-family="ui-monospace, 'SF Mono', Menlo, monospace" font-size="16" fill="#C66A40" letter-spacing="2">CLASSIFIED · SOON</text>

  <rect width="800" height="500" filter="url(#grain)" opacity="0.5"/>
</svg>
