<svg viewBox="0 0 800 500" xmlns="http://www.w3.org/2000/svg">
  <defs>
    <filter id="grain">
      <feTurbulence type="fractalNoise" baseFrequency="0.85" numOctaves="2" stitchTiles="stitch"/>
      <feColorMatrix values="0 0 0 0 0  0 0 0 0 0  0 0 0 0 0  0 0 0 0.05 0"/>
    </filter>
    <radialGradient id="warmLight" cx="50%" cy="40%" r="65%">
      <stop offset="0%" stop-color="#3A332C"/>
      <stop offset="100%" stop-color="#2A2724"/>
    </radialGradient>
    <linearGradient id="terracottaShade" x1="0%" y1="0%" x2="100%" y2="100%">
      <stop offset="0%" stop-color="#E58A5F"/>
      <stop offset="100%" stop-color="#C66A40"/>
    </linearGradient>
    <linearGradient id="boneShade" x1="0%" y1="0%" x2="100%" y2="100%">
      <stop offset="0%" stop-color="#F7F2E8"/>
      <stop offset="100%" stop-color="#E0DACE"/>
    </linearGradient>
  </defs>

  <!-- Background -->
  <rect width="800" height="500" fill="url(#warmLight)"/>

  <!-- Subtle grid -->
  <g stroke="white" stroke-width="1" opacity="0.025">
    <line x1="80" y1="0" x2="80" y2="500"/>
    <line x1="160" y1="0" x2="160" y2="500"/>
    <line x1="240" y1="0" x2="240" y2="500"/>
    <line x1="320" y1="0" x2="320" y2="500"/>
    <line x1="400" y1="0" x2="400" y2="500"/>
    <line x1="480" y1="0" x2="480" y2="500"/>
    <line x1="560" y1="0" x2="560" y2="500"/>
    <line x1="640" y1="0" x2="640" y2="500"/>
    <line x1="720" y1="0" x2="720" y2="500"/>
    <line x1="0" y1="80" x2="800" y2="80"/>
    <line x1="0" y1="160" x2="800" y2="160"/>
    <line x1="0" y1="240" x2="800" y2="240"/>
    <line x1="0" y1="320" x2="800" y2="320"/>
    <line x1="0" y1="400" x2="800" y2="400"/>
  </g>

  <!-- Cast shadow under the loop -->
  <ellipse cx="400" cy="398" rx="150" ry="16" fill="#000" opacity="0.35"/>

  <!-- The loop: a segmented ring of iterations (bone), each segment = one Ralph pass -->
  <circle cx="400" cy="250" r="104" fill="none" stroke="url(#boneShade)" stroke-width="50"
          stroke-dasharray="68 14" stroke-linecap="butt" transform="rotate(-90 400 250)"/>

  <!-- The review gate: one terracotta segment at the top of the loop -->
  <path d="M 426.9 149.6 A 104 104 0 0 0 373.1 149.6"
        fill="none" stroke="url(#terracottaShade)" stroke-width="50" stroke-linecap="round"/>

  <!-- Inner core (the persistent context: git history + progress.txt + prd.json) -->
  <circle cx="400" cy="250" r="46" fill="url(#warmLight)"/>
  <circle cx="400" cy="250" r="46" fill="none" stroke="url(#boneShade)" stroke-width="3" opacity="0.5"/>
  <ellipse cx="384" cy="234" rx="22" ry="9" fill="#ffffff" opacity="0.14"/>

  <!-- Direction arrowhead (clockwise flow) on the right of the loop -->
  <path d="M 520 244 L 540 250 L 520 256 Z" fill="url(#terracottaShade)"/>

  <!-- Traveling marker: current iteration moving around the loop -->
  <circle cx="490" cy="302" r="15" fill="url(#terracottaShade)"/>
  <ellipse cx="484" cy="296" rx="7" ry="3" fill="#ffffff" opacity="0.3"/>

  <!-- Small bone accent dot near the gate -->
  <circle cx="400" cy="146" r="6" fill="#F2EDE3" opacity="0.85"/>

  <!-- Grain overlay -->
  <rect width="800" height="500" filter="url(#grain)"/>

  <!-- Vignette -->
  <radialGradient id="vignette" cx="50%" cy="50%" r="75%">
    <stop offset="60%" stop-color="#000" stop-opacity="0"/>
    <stop offset="100%" stop-color="#000" stop-opacity="0.55"/>
  </radialGradient>
  <rect width="800" height="500" fill="url(#vignette)"/>
</svg>
