<svg viewBox="0 0 800 500" xmlns="http://www.w3.org/2000/svg">
  <defs>
    <filter id="grain">
      <feTurbulence type="fractalNoise" baseFrequency="0.85" numOctaves="2" stitchTiles="stitch"/>
      <feColorMatrix values="0 0 0 0 0  0 0 0 0 0  0 0 0 0 0  0 0 0 0.03 0"/>
    </filter>
  </defs>
  <rect width="800" height="500" fill="#16130F"/>
  <g stroke="white" stroke-width="1" opacity="0.04">
    <line x1="80" y1="0" x2="80" y2="500"/><line x1="160" y1="0" x2="160" y2="500"/>
    <line x1="240" y1="0" x2="240" y2="500"/><line x1="320" y1="0" x2="320" y2="500"/>
    <line x1="400" y1="0" x2="400" y2="500"/><line x1="480" y1="0" x2="480" y2="500"/>
    <line x1="560" y1="0" x2="560" y2="500"/><line x1="640" y1="0" x2="640" y2="500"/>
    <line x1="720" y1="0" x2="720" y2="500"/>
    <line x1="0" y1="80" x2="800" y2="80"/><line x1="0" y1="160" x2="800" y2="160"/>
    <line x1="0" y1="240" x2="800" y2="240"/><line x1="0" y1="320" x2="800" y2="320"/>
    <line x1="0" y1="400" x2="800" y2="400"/><line x1="0" y1="480" x2="800" y2="480"/>
  </g>
  <!-- Pine tree built from brackets stacked -->
  <!-- Trunk -->
  <rect x="390" y="350" width="20" height="45" fill="#DC7A4F" opacity="0.9"/>
  <!-- Rows of brackets/braces forming a tree silhouette, centered at 400 -->
  <!-- Row 1 (top) -->
  <text x="370" y="155" font-family="JetBrains Mono, ui-monospace, monospace" font-size="22" fill="#DC7A4F" text-anchor="middle">[/]</text>
  <!-- Row 2 -->
  <text x="400" y="190" font-family="JetBrains Mono, ui-monospace, monospace" font-size="26" fill="#DC7A4F" text-anchor="middle">{/\}</text>
  <!-- Row 3 -->
  <text x="400" y="230" font-family="JetBrains Mono, ui-monospace, monospace" font-size="30" fill="#DC7A4F" text-anchor="middle">[/\/]</text>
  <!-- Row 4 -->
  <text x="400" y="275" font-family="JetBrains Mono, ui-monospace, monospace" font-size="34" fill="#DC7A4F" text-anchor="middle">{/\/\}</text>
  <!-- Row 5 -->
  <text x="400" y="325" font-family="JetBrains Mono, ui-monospace, monospace" font-size="38" fill="#F2EDE3" text-anchor="middle">[/\/\/]</text>
  <line x1="220" y1="405" x2="580" y2="405" stroke="#DC7A4F" stroke-width="1" opacity="0.6"/>
  <rect width="800" height="500" filter="url(#grain)" opacity="0.03"/>
  <text x="24" y="475" font-family="JetBrains Mono, ui-monospace, monospace" font-size="14" font-weight="700" fill="#DC7A4F">[03]</text>
</svg>
