<svg viewBox="0 0 800 500" xmlns="http://www.w3.org/2000/svg">
  <defs>
    <filter id="grain">
      <feTurbulence type="fractalNoise" baseFrequency="0.85" numOctaves="2" stitchTiles="stitch"/>
      <feColorMatrix values="0 0 0 0 0  0 0 0 0 0  0 0 0 0 0  0 0 0 0.03 0"/>
    </filter>
  </defs>
  <rect width="800" height="500" fill="#16130F"/>
  <g stroke="white" stroke-width="1" opacity="0.04">
    <line x1="80" y1="0" x2="80" y2="500"/><line x1="160" y1="0" x2="160" y2="500"/>
    <line x1="240" y1="0" x2="240" y2="500"/><line x1="320" y1="0" x2="320" y2="500"/>
    <line x1="400" y1="0" x2="400" y2="500"/><line x1="480" y1="0" x2="480" y2="500"/>
    <line x1="560" y1="0" x2="560" y2="500"/><line x1="640" y1="0" x2="640" y2="500"/>
    <line x1="720" y1="0" x2="720" y2="500"/>
    <line x1="0" y1="80" x2="800" y2="80"/><line x1="0" y1="160" x2="800" y2="160"/>
    <line x1="0" y1="240" x2="800" y2="240"/><line x1="0" y1="320" x2="800" y2="320"/>
    <line x1="0" y1="400" x2="800" y2="400"/><line x1="0" y1="480" x2="800" y2="480"/>
  </g>
  <!-- World map outline (2 lines, simplified) -->
  <g fill="none" stroke="#F2EDE3" stroke-width="1" opacity="0.35">
    <!-- Rough continental outline top -->
    <path d="M240,230 Q280,215 320,225 Q350,210 370,220 Q390,215 410,220 Q440,210 470,218 Q500,212 530,225 Q550,220 560,230"/>
    <!-- Rough continental outline bottom -->
    <path d="M250,260 Q290,255 320,265 Q350,258 380,265 Q410,260 430,268 Q460,262 490,270 Q520,265 545,260"/>
  </g>
  <!-- Compass circle -->
  <g fill="none" stroke="#DC7A4F" stroke-width="2">
    <circle cx="400" cy="230" r="95"/>
    <!-- Cross hairs -->
    <line x1="400" y1="135" x2="400" y2="145"/>
    <line x1="400" y1="315" x2="400" y2="325"/>
    <line x1="305" y1="230" x2="315" y2="230"/>
    <line x1="485" y1="230" x2="495" y2="230"/>
  </g>
  <!-- Compass needle pointing N -->
  <g>
    <!-- North needle (terracotta, pointing up) -->
    <polygon points="400,145 408,230 392,230" fill="#DC7A4F"/>
    <!-- South needle (muted, pointing down) -->
    <polygon points="400,315 408,230 392,230" fill="#F2EDE3" opacity="0.4"/>
  </g>
  <!-- N label -->
  <text x="393" y="128" font-family="JetBrains Mono, ui-monospace, monospace" font-size="11" fill="#DC7A4F">N</text>
  <line x1="220" y1="340" x2="580" y2="340" stroke="#DC7A4F" stroke-width="1" opacity="0.6"/>
  <rect width="800" height="500" filter="url(#grain)" opacity="0.03"/>
  <text x="24" y="475" font-family="JetBrains Mono, ui-monospace, monospace" font-size="14" font-weight="700" fill="#DC7A4F">[15]</text>
</svg>
