<svg viewBox="0 0 800 500" xmlns="http://www.w3.org/2000/svg">
  <defs>
    <filter id="grain">
      <feTurbulence type="fractalNoise" baseFrequency="0.85" numOctaves="2" stitchTiles="stitch"/>
      <feColorMatrix values="0 0 0 0 0  0 0 0 0 0  0 0 0 0 0  0 0 0 0.03 0"/>
    </filter>
  </defs>
  <rect width="800" height="500" fill="#16130F"/>
  <g stroke="white" stroke-width="1" opacity="0.04">
    <line x1="80" y1="0" x2="80" y2="500"/><line x1="160" y1="0" x2="160" y2="500"/>
    <line x1="240" y1="0" x2="240" y2="500"/><line x1="320" y1="0" x2="320" y2="500"/>
    <line x1="400" y1="0" x2="400" y2="500"/><line x1="480" y1="0" x2="480" y2="500"/>
    <line x1="560" y1="0" x2="560" y2="500"/><line x1="640" y1="0" x2="640" y2="500"/>
    <line x1="720" y1="0" x2="720" y2="500"/>
    <line x1="0" y1="80" x2="800" y2="80"/><line x1="0" y1="160" x2="800" y2="160"/>
    <line x1="0" y1="240" x2="800" y2="240"/><line x1="0" y1="320" x2="800" y2="320"/>
    <line x1="0" y1="400" x2="800" y2="400"/><line x1="0" y1="480" x2="800" y2="480"/>
  </g>
  <!-- Left map pin -->
  <g fill="none" stroke="#DC7A4F" stroke-width="2">
    <circle cx="255" cy="220" r="22"/>
    <path d="M255,242 Q235,275 255,310 Q275,275 255,242Z"/>
    <circle cx="255" cy="220" r="7" fill="#DC7A4F"/>
  </g>
  <!-- Right map pin -->
  <g fill="none" stroke="#DC7A4F" stroke-width="2">
    <circle cx="545" cy="220" r="22"/>
    <path d="M545,242 Q525,275 545,310 Q565,275 545,242Z"/>
    <circle cx="545" cy="220" r="7" fill="#DC7A4F"/>
  </g>
  <!-- Dashed connecting line -->
  <line x1="278" y1="220" x2="370" y2="220" stroke="#DC7A4F" stroke-width="1.5" stroke-dasharray="8,5"/>
  <line x1="430" y1="220" x2="522" y2="220" stroke="#DC7A4F" stroke-width="1.5" stroke-dasharray="8,5"/>
  <!-- Globe circle in middle -->
  <g fill="none" stroke="#F2EDE3" stroke-width="1.5">
    <circle cx="400" cy="220" r="30"/>
    <!-- Longitude lines -->
    <ellipse cx="400" cy="220" rx="16" ry="30"/>
    <!-- Latitude line -->
    <line x1="370" y1="220" x2="430" y2="220"/>
  </g>
  <line x1="220" y1="330" x2="580" y2="330" stroke="#DC7A4F" stroke-width="1" opacity="0.6"/>
  <rect width="800" height="500" filter="url(#grain)" opacity="0.03"/>
  <text x="24" y="475" font-family="JetBrains Mono, ui-monospace, monospace" font-size="14" font-weight="700" fill="#DC7A4F">[08]</text>
</svg>
