<svg viewBox="0 0 800 500" xmlns="http://www.w3.org/2000/svg">
  <defs>
    <filter id="grain">
      <feTurbulence type="fractalNoise" baseFrequency="0.85" numOctaves="2" stitchTiles="stitch"/>
      <feColorMatrix values="0 0 0 0 0  0 0 0 0 0  0 0 0 0 0  0 0 0 0.03 0"/>
    </filter>
  </defs>
  <rect width="800" height="500" fill="#16130F"/>
  <g stroke="white" stroke-width="1" opacity="0.04">
    <line x1="80" y1="0" x2="80" y2="500"/><line x1="160" y1="0" x2="160" y2="500"/>
    <line x1="240" y1="0" x2="240" y2="500"/><line x1="320" y1="0" x2="320" y2="500"/>
    <line x1="400" y1="0" x2="400" y2="500"/><line x1="480" y1="0" x2="480" y2="500"/>
    <line x1="560" y1="0" x2="560" y2="500"/><line x1="640" y1="0" x2="640" y2="500"/>
    <line x1="720" y1="0" x2="720" y2="500"/>
    <line x1="0" y1="80" x2="800" y2="80"/><line x1="0" y1="160" x2="800" y2="160"/>
    <line x1="0" y1="240" x2="800" y2="240"/><line x1="0" y1="320" x2="800" y2="320"/>
    <line x1="0" y1="400" x2="800" y2="400"/><line x1="0" y1="480" x2="800" y2="480"/>
  </g>
  <!-- Fuel-pump nozzle outline, centered -->
  <g fill="none" stroke="#DC7A4F" stroke-width="2">
    <!-- Pump body -->
    <rect x="345" y="180" width="90" height="130" rx="6"/>
    <!-- Display window -->
    <rect x="358" y="195" width="64" height="38" rx="3"/>
    <!-- Hose -->
    <path d="M345,240 Q310,240 300,270 Q290,300 310,315 L340,315"/>
    <!-- Nozzle -->
    <rect x="328" y="305" width="38" height="22" rx="5"/>
    <!-- Nozzle tip -->
    <rect x="310" y="310" width="20" height="12" rx="3"/>
  </g>
  <!-- Three flow arrows pointing upward (secondary) -->
  <g fill="none" stroke="#F2EDE3" stroke-width="1.5">
    <line x1="460" y1="270" x2="460" y2="180"/>
    <polyline points="450,198 460,180 470,198"/>
    <line x1="485" y1="290" x2="485" y2="200"/>
    <polyline points="475,218 485,200 495,218"/>
    <line x1="510" y1="285" x2="510" y2="205"/>
    <polyline points="500,223 510,205 520,223"/>
  </g>
  <line x1="220" y1="330" x2="580" y2="330" stroke="#DC7A4F" stroke-width="1" opacity="0.6"/>
  <rect width="800" height="500" filter="url(#grain)" opacity="0.03"/>
  <text x="24" y="475" font-family="JetBrains Mono, ui-monospace, monospace" font-size="14" font-weight="700" fill="#DC7A4F">[18]</text>
</svg>
