<svg viewBox="0 0 800 500" xmlns="http://www.w3.org/2000/svg">
  <defs>
    <filter id="grain">
      <feTurbulence type="fractalNoise" baseFrequency="0.85" numOctaves="2" stitchTiles="stitch"/>
      <feColorMatrix values="0 0 0 0 0  0 0 0 0 0  0 0 0 0 0  0 0 0 0.03 0"/>
    </filter>
  </defs>
  <rect width="800" height="500" fill="#16130F"/>
  <g stroke="white" stroke-width="1" opacity="0.04">
    <line x1="80" y1="0" x2="80" y2="500"/><line x1="160" y1="0" x2="160" y2="500"/>
    <line x1="240" y1="0" x2="240" y2="500"/><line x1="320" y1="0" x2="320" y2="500"/>
    <line x1="400" y1="0" x2="400" y2="500"/><line x1="480" y1="0" x2="480" y2="500"/>
    <line x1="560" y1="0" x2="560" y2="500"/><line x1="640" y1="0" x2="640" y2="500"/>
    <line x1="720" y1="0" x2="720" y2="500"/>
    <line x1="0" y1="80" x2="800" y2="80"/><line x1="0" y1="160" x2="800" y2="160"/>
    <line x1="0" y1="240" x2="800" y2="240"/><line x1="0" y1="320" x2="800" y2="320"/>
    <line x1="0" y1="400" x2="800" y2="400"/><line x1="0" y1="480" x2="800" y2="480"/>
  </g>
  <!-- Compass rose (faint, behind doorway) -->
  <g fill="none" stroke="#F2EDE3" stroke-width="1" opacity="0.25">
    <circle cx="400" cy="230" r="80"/>
    <!-- 8-point rose -->
    <line x1="400" y1="150" x2="400" y2="310"/>
    <line x1="320" y1="230" x2="480" y2="230"/>
    <line x1="343" y1="173" x2="457" y2="287"/>
    <line x1="457" y1="173" x2="343" y2="287"/>
    <!-- Short inner ticks -->
    <line x1="400" y1="155" x2="400" y2="170"/>
    <line x1="400" y1="290" x2="400" y2="305"/>
    <line x1="325" y1="230" x2="340" y2="230"/>
    <line x1="460" y1="230" x2="475" y2="230"/>
  </g>
  <!-- Doorway outline (foreground, terracotta) -->
  <g fill="none" stroke="#DC7A4F" stroke-width="2">
    <!-- Door frame: left post, right post, arch top -->
    <line x1="340" y1="340" x2="340" y2="130"/>
    <line x1="460" y1="340" x2="460" y2="130"/>
    <!-- Arch -->
    <path d="M340,130 Q400,70 460,130"/>
    <!-- Floor -->
    <line x1="310" y1="340" x2="490" y2="340"/>
    <!-- Door panel partially open (half-visible) -->
    <path d="M340,340 L340,148 Q390,105 420,148 L420,310" stroke-dasharray="none"/>
  </g>
  <rect width="800" height="500" filter="url(#grain)" opacity="0.03"/>
  <text x="24" y="475" font-family="JetBrains Mono, ui-monospace, monospace" font-size="14" font-weight="700" fill="#DC7A4F">[21]</text>
</svg>
