<svg viewBox="0 0 800 500" xmlns="http://www.w3.org/2000/svg">
  <defs>
    <filter id="grain">
      <feTurbulence type="fractalNoise" baseFrequency="0.85" numOctaves="2" stitchTiles="stitch"/>
      <feColorMatrix values="0 0 0 0 0  0 0 0 0 0  0 0 0 0 0  0 0 0 0.03 0"/>
    </filter>
  </defs>
  <rect width="800" height="500" fill="#16130F"/>
  <g stroke="white" stroke-width="1" opacity="0.04">
    <line x1="80" y1="0" x2="80" y2="500"/><line x1="160" y1="0" x2="160" y2="500"/>
    <line x1="240" y1="0" x2="240" y2="500"/><line x1="320" y1="0" x2="320" y2="500"/>
    <line x1="400" y1="0" x2="400" y2="500"/><line x1="480" y1="0" x2="480" y2="500"/>
    <line x1="560" y1="0" x2="560" y2="500"/><line x1="640" y1="0" x2="640" y2="500"/>
    <line x1="720" y1="0" x2="720" y2="500"/>
    <line x1="0" y1="80" x2="800" y2="80"/><line x1="0" y1="160" x2="800" y2="160"/>
    <line x1="0" y1="240" x2="800" y2="240"/><line x1="0" y1="320" x2="800" y2="320"/>
    <line x1="0" y1="400" x2="800" y2="400"/><line x1="0" y1="480" x2="800" y2="480"/>
  </g>
  <!-- Play triangle composed of stair-step bars -->
  <!-- The bars together form a right-triangle / play button staircase shape -->
  <!-- Each bar is taller than the last, arranged left-to-right so outer edge forms a triangle -->
  <!-- Bar widths: 45px, gap: 8px, 5 bars total -->
  <!-- Heights: 60, 110, 160, 210, 260 — staircase ascending right -->
  <!-- Bottom aligned at y=330 -->
  <g fill="none" stroke="#DC7A4F" stroke-width="2">
    <!-- Bar 1 -->
    <rect x="265" y="270" width="42" height="60" rx="3"/>
    <!-- Bar 2 -->
    <rect x="315" y="220" width="42" height="110" rx="3"/>
    <!-- Bar 3 -->
    <rect x="365" y="170" width="42" height="160" rx="3"/>
    <!-- Bar 4 -->
    <rect x="415" y="120" width="42" height="210" rx="3"/>
    <!-- Bar 5 -->
    <rect x="465" y="70" width="42" height="260" rx="3"/>
  </g>
  <!-- Play triangle outline overlaid (secondary) -->
  <polygon points="280,280 480,240 480,340 280,330"
    fill="none" stroke="#F2EDE3" stroke-width="1" opacity="0.3"/>
  <line x1="220" y1="345" x2="580" y2="345" stroke="#DC7A4F" stroke-width="1" opacity="0.6"/>
  <rect width="800" height="500" filter="url(#grain)" opacity="0.03"/>
  <text x="24" y="475" font-family="JetBrains Mono, ui-monospace, monospace" font-size="14" font-weight="700" fill="#DC7A4F">[20]</text>
</svg>
