<svg viewBox="0 0 800 500" xmlns="http://www.w3.org/2000/svg" role="img" aria-label="Рынок Маркет: закрытый проект B2B-логистики — маршрутные карточки за приглушённой шторкой">
  <defs>
    <linearGradient id="bg" x1="0" y1="0" x2="1" y2="1">
      <stop offset="0" stop-color="#141414"/>
      <stop offset="0.5" stop-color="#1e2224"/>
      <stop offset="1" stop-color="#2f1f19"/>
    </linearGradient>
    <linearGradient id="paper" x1="0" y1="0" x2="1" y2="1">
      <stop offset="0" stop-color="#f3eee4"/>
      <stop offset="1" stop-color="#d9cec0"/>
    </linearGradient>
    <linearGradient id="veil" x1="0" y1="0" x2="0" y2="1">
      <stop offset="0" stop-color="#141414" stop-opacity="0.05"/>
      <stop offset="1" stop-color="#141414" stop-opacity="0.82"/>
    </linearGradient>
    <filter id="grain">
      <feTurbulence type="fractalNoise" baseFrequency="0.78" numOctaves="3" stitchTiles="stitch"/>
      <feColorMatrix values="0 0 0 0 0  0 0 0 0 0  0 0 0 0 0  0 0 0 0.03 0"/>
    </filter>
    <filter id="softShadow" x="-30%" y="-30%" width="160%" height="160%">
      <feDropShadow dx="0" dy="14" stdDeviation="16" flood-color="#000000" flood-opacity="0.34"/>
    </filter>
  </defs>

  <rect width="800" height="500" fill="url(#bg)"/>
  <rect width="800" height="500" filter="url(#grain)" opacity="0.9"/>

  <!-- route line -->
  <g fill="none" stroke="#dc7a4f" stroke-width="2.4" stroke-linecap="round">
    <path d="M96 372C210 372 232 258 348 258C462 258 486 176 704 176" stroke-dasharray="10 9" opacity="0.75"/>
    <circle cx="96" cy="372" r="7" fill="#dc7a4f" stroke="none"/>
    <circle cx="704" cy="176" r="7" fill="none" stroke-width="3"/>
  </g>

  <g transform="translate(64 78)">
    <text x="0" y="0" fill="#dc7a4f" font-family="Menlo, Monaco, monospace" font-size="12" letter-spacing="3">B2B · СНАБЖЕНИЕ И ДОСТАВКА</text>
    <text x="0" y="52" fill="#f2ede3" font-family="Georgia, serif" font-size="46">Рынок Маркет</text>
  </g>

  <!-- shipment cards -->
  <g filter="url(#softShadow)">
    <g transform="translate(96 196)">
      <rect width="180" height="104" rx="8" fill="url(#paper)"/>
      <rect x="18" y="20" width="58" height="10" rx="5" fill="#dc7a4f"/>
      <rect x="18" y="46" width="144" height="8" rx="4" fill="#5b544b" opacity="0.42"/>
      <rect x="18" y="66" width="108" height="8" rx="4" fill="#5b544b" opacity="0.3"/>
    </g>
    <g transform="translate(310 264)">
      <rect width="180" height="104" rx="8" fill="url(#paper)"/>
      <rect x="18" y="20" width="76" height="10" rx="5" fill="#2d6a4f"/>
      <rect x="18" y="46" width="126" height="8" rx="4" fill="#5b544b" opacity="0.42"/>
      <rect x="18" y="66" width="144" height="8" rx="4" fill="#5b544b" opacity="0.3"/>
    </g>
    <g transform="translate(524 190)">
      <rect width="180" height="104" rx="8" fill="url(#paper)"/>
      <rect x="18" y="20" width="64" height="10" rx="5" fill="#716a5f"/>
      <rect x="18" y="46" width="140" height="8" rx="4" fill="#5b544b" opacity="0.42"/>
      <rect x="18" y="66" width="96" height="8" rx="4" fill="#5b544b" opacity="0.3"/>
    </g>
  </g>

  <!-- closed veil -->
  <rect y="300" width="800" height="200" fill="url(#veil)"/>

  <g transform="translate(64 424)">
    <rect x="-2" y="-30" width="228" height="44" rx="22" fill="none" stroke="#dc7a4f" stroke-width="1.6" stroke-dasharray="8 7"/>
    <g transform="translate(22 -16)">
      <rect x="-4" y="-10" width="16" height="12" rx="2.5" fill="none" stroke="#dc7a4f" stroke-width="2"/>
      <path d="M-0.5 -10V-14a4.5 4.5 0 019 0v4" fill="none" stroke="#dc7a4f" stroke-width="2"/>
    </g>
    <text x="48" y="-8" fill="#dc7a4f" font-family="Menlo, Monaco, monospace" font-size="12" letter-spacing="2">ПО ПОДПИСКЕ</text>
  </g>
</svg>
